<svg width="33" height="30" viewBox="0 0 33 30" fill="none" xmlns="http://www.w3.org/2000/svg">
<path d="M15.0689 22.5L6.72293 22.5L2.68021 9.51692L28.2808 9.50046L23.4356 22.5L15.0689 22.5Z" stroke="white"/>
<path d="M13.1082 26.087C13.1082 27.9721 11.58 29.5002 9.69495 29.5002C7.80988 29.5002 6.28174 27.9721 6.28174 26.087C6.28174 24.202 7.80988 22.6738 9.69495 22.6738C11.58 22.6738 13.1082 24.202 13.1082 26.087Z" stroke="white"/>
<path d="M24.0652 26.087C24.0652 27.9721 22.537 29.5002 20.652 29.5002C18.7669 29.5002 17.2388 27.9721 17.2388 26.087C17.2388 24.202 18.7669 22.6738 20.652 22.6738C22.537 22.6738 24.0652 24.202 24.0652 26.087Z" stroke="white"/>
<path d="M33 9C33 12.866 29.866 16 26 16C22.134 16 19 12.866 19 9C19 5.13401 22.134 2 26 2C29.866 2 33 5.13401 33 9Z" fill="#FF7BAC"/>
<path d="M26.9854 5.72727V13H26.1048V6.65057H26.0621L24.2866 7.82955V6.93466L26.1048 5.72727H26.9854Z" fill="#0D0C0C"/>
<path d="M2.50098 9.044L2.50098 -1.90735e-05" stroke="white"/>
<path d="M3.00098 0.5L-0.00019455 0.5" stroke="white"/>
</svg>
