<svg width="21" height="22" viewBox="0 0 21 22" fill="none" xmlns="http://www.w3.org/2000/svg">
<path d="M13.1932 16.5428C12.2529 17.7879 11.355 18.9769 10.4884 20.2464C9.8375 19.3858 9.13533 18.5175 8.42819 17.6431C7.85354 16.9325 7.2756 16.2178 6.71921 15.4999C5.12919 13.4483 3.61791 11.2572 2.50203 8.69896C1.03437 5.3342 2.18115 2.85708 3.60958 2.13313C4.31626 1.77497 5.23592 1.73903 6.27047 2.31919C7.32869 2.91262 8.52733 4.17153 9.59645 6.42847L10.5235 8.38553L11.4121 6.41071C12.4833 4.03011 13.7325 2.63807 14.8552 1.95343C15.962 1.27852 16.9242 1.29086 17.6223 1.64184C19.0004 2.33461 20.227 5.0021 18.2716 9.32015C16.5518 12.0461 15.0366 14.0967 13.6402 15.9503C13.4901 16.1496 13.3411 16.3469 13.1932 16.5428Z" fill="#FF7BAC" stroke="#0D0C0C" stroke-width="2"/>
</svg>
