<svg width="20" height="19" viewBox="0 0 20 19" fill="none" xmlns="http://www.w3.org/2000/svg">
<rect x="1" y="2.5" width="18" height="15" stroke="black"/>
<path d="M1.5 7H19.5" stroke="black"/>
<line x1="15" x2="15" y2="4" stroke="black"/>
<line x1="5" x2="5" y2="4" stroke="black"/>
<path d="M8.39169 15.0696C8.06357 15.0696 7.77107 15.0133 7.5142 14.9006C7.259 14.7879 7.05599 14.6313 6.90518 14.4308C6.75604 14.2286 6.67483 13.9941 6.66158 13.7273H7.288C7.30125 13.8913 7.3576 14.033 7.45703 14.1523C7.55646 14.27 7.68655 14.3612 7.8473 14.4258C8.00805 14.4904 8.1862 14.5227 8.38175 14.5227C8.6005 14.5227 8.79439 14.4846 8.96342 14.4084C9.13246 14.3321 9.26503 14.2261 9.36115 14.0902C9.45727 13.9543 9.50533 13.7969 9.50533 13.6179C9.50533 13.4306 9.45893 13.2657 9.36612 13.1232C9.27332 12.979 9.13743 12.8664 8.95845 12.7852C8.77947 12.704 8.56072 12.6634 8.3022 12.6634H7.89453V12.1165H8.3022C8.50438 12.1165 8.6817 12.08 8.83416 12.0071C8.98828 11.9342 9.10843 11.8314 9.1946 11.6989C9.28243 11.5663 9.32635 11.4105 9.32635 11.2315C9.32635 11.0592 9.28823 10.9092 9.212 10.7816C9.13577 10.654 9.02805 10.5546 8.88885 10.4833C8.7513 10.4121 8.5889 10.3764 8.40163 10.3764C8.22597 10.3764 8.06025 10.4087 7.90447 10.4734C7.75036 10.5363 7.62441 10.6283 7.52663 10.7493C7.42886 10.8686 7.37583 11.0128 7.36754 11.1818H6.77095C6.78089 10.915 6.86127 10.6813 7.01207 10.4808C7.16288 10.2786 7.36009 10.1212 7.60369 10.0085C7.84896 9.89583 8.11825 9.83949 8.41158 9.83949C8.72644 9.83949 8.99657 9.90329 9.22195 10.0309C9.44732 10.1568 9.6205 10.3234 9.74148 10.5305C9.86245 10.7377 9.92294 10.9614 9.92294 11.2017C9.92294 11.4884 9.84754 11.7328 9.69673 11.935C9.54759 12.1372 9.34458 12.2772 9.08771 12.3551V12.3949C9.40921 12.4479 9.66027 12.5846 9.84091 12.805C10.0215 13.0238 10.1119 13.2947 10.1119 13.6179C10.1119 13.8946 10.0365 14.1432 9.88565 14.3636C9.73651 14.5824 9.53267 14.7547 9.27415 14.8807C9.01563 15.0066 8.72147 15.0696 8.39169 15.0696ZM12.9183 9.90909V15H12.3018V10.5554H12.272L11.0291 11.3807V10.7543L12.3018 9.90909H12.9183Z" fill="black"/>
</svg>
