<svg width="47" height="40" viewBox="0 0 47 40" fill="none" xmlns="http://www.w3.org/2000/svg">
<rect x="4.5" y="0.5" width="39" height="39" rx="19.5" fill="white" stroke="black"/>
<path d="M22.3222 25V20.056L21.9142 19.972C21.7742 19.94 21.6602 19.89 21.5722 19.822C21.4882 19.754 21.4462 19.654 21.4462 19.522V18.79H22.3222V18.436C22.3222 18.08 22.3782 17.758 22.4902 17.47C22.6062 17.182 22.7702 16.936 22.9822 16.732C23.1982 16.528 23.4602 16.37 23.7682 16.258C24.0762 16.146 24.4262 16.09 24.8182 16.09C24.9702 16.09 25.1102 16.1 25.2382 16.12C25.3702 16.136 25.5062 16.164 25.6462 16.204L25.6102 17.11C25.6062 17.174 25.5882 17.228 25.5562 17.272C25.5282 17.312 25.4922 17.346 25.4482 17.374C25.4042 17.398 25.3542 17.416 25.2982 17.428C25.2462 17.44 25.1942 17.446 25.1422 17.446C24.9782 17.446 24.8322 17.462 24.7042 17.494C24.5762 17.526 24.4682 17.584 24.3802 17.668C24.2962 17.748 24.2322 17.856 24.1882 17.992C24.1442 18.124 24.1222 18.292 24.1222 18.496V18.79H25.5862V20.062H24.1822V25H22.3222Z" fill="black"/>
</svg>
