<svg width="41" height="40" viewBox="0 0 41 40" fill="none" xmlns="http://www.w3.org/2000/svg">
<rect x="1" y="4.89453" width="39" height="33.1579" stroke="#0D0C0C" stroke-width="2"/>
<path d="M2 15L39 15" stroke="#0D0C0C"/>
<line x1="30.2632" x2="30.2632" y2="7.78947" stroke="#0D0C0C" stroke-width="2"/>
<line x1="10.7896" x2="10.7896" y2="7.78947" stroke="#0D0C0C" stroke-width="2"/>
<path d="M16.4486 19.8693C16.9036 19.8693 17.3236 19.9343 17.7086 20.0643C18.0936 20.1943 18.4236 20.3793 18.6986 20.6193C18.9786 20.8593 19.1961 21.1493 19.3511 21.4893C19.5061 21.8293 19.5836 22.2068 19.5836 22.6218C19.5836 22.9618 19.5386 23.2668 19.4486 23.5368C19.3636 23.8018 19.2386 24.0368 19.0736 24.2418C18.9136 24.4418 18.7186 24.6118 18.4886 24.7518C18.2586 24.8918 18.0011 25.0043 17.7161 25.0893C18.4161 25.2743 18.9411 25.5843 19.2911 26.0193C19.6461 26.4543 19.8236 26.9993 19.8236 27.6543C19.8236 28.1493 19.7286 28.5943 19.5386 28.9893C19.3536 29.3843 19.0986 29.7218 18.7736 30.0018C18.4486 30.2768 18.0686 30.4893 17.6336 30.6393C17.2036 30.7843 16.7411 30.8568 16.2461 30.8568C15.6761 30.8568 15.1886 30.7868 14.7836 30.6468C14.3786 30.5018 14.0361 30.3043 13.7561 30.0543C13.4761 29.8043 13.2461 29.5093 13.0661 29.1693C12.8861 28.8243 12.7336 28.4518 12.6086 28.0518L13.1786 27.8118C13.2836 27.7668 13.3886 27.7443 13.4936 27.7443C13.5936 27.7443 13.6811 27.7668 13.7561 27.8118C13.8361 27.8518 13.8961 27.9168 13.9361 28.0068C13.9461 28.0268 13.9561 28.0493 13.9661 28.0743C13.9761 28.0943 13.9861 28.1168 13.9961 28.1418C14.0661 28.2868 14.1511 28.4518 14.2511 28.6368C14.3511 28.8168 14.4861 28.9868 14.6561 29.1468C14.8261 29.3068 15.0361 29.4418 15.2861 29.5518C15.5411 29.6618 15.8561 29.7168 16.2311 29.7168C16.6061 29.7168 16.9336 29.6568 17.2136 29.5368C17.4986 29.4118 17.7336 29.2518 17.9186 29.0568C18.1086 28.8618 18.2511 28.6443 18.3461 28.4043C18.4411 28.1643 18.4886 27.9268 18.4886 27.6918C18.4886 27.4018 18.4486 27.1368 18.3686 26.8968C18.2936 26.6568 18.1536 26.4493 17.9486 26.2743C17.7486 26.0993 17.4686 25.9618 17.1086 25.8618C16.7536 25.7618 16.2961 25.7118 15.7361 25.7118V24.7443C16.1911 24.7393 16.5786 24.6893 16.8986 24.5943C17.2236 24.4993 17.4886 24.3693 17.6936 24.2043C17.8986 24.0393 18.0461 23.8418 18.1361 23.6118C18.2311 23.3818 18.2786 23.1268 18.2786 22.8468C18.2786 22.5368 18.2286 22.2668 18.1286 22.0368C18.0336 21.8068 17.9011 21.6168 17.7311 21.4668C17.5611 21.3168 17.3586 21.2043 17.1236 21.1293C16.8936 21.0543 16.6436 21.0168 16.3736 21.0168C16.1036 21.0168 15.8536 21.0568 15.6236 21.1368C15.3936 21.2168 15.1886 21.3293 15.0086 21.4743C14.8336 21.6143 14.6861 21.7843 14.5661 21.9843C14.4461 22.1793 14.3561 22.3918 14.2961 22.6218C14.2561 22.7668 14.1961 22.8718 14.1161 22.9368C14.0361 23.0018 13.9336 23.0343 13.8086 23.0343C13.7836 23.0343 13.7561 23.0343 13.7261 23.0343C13.7011 23.0293 13.6711 23.0243 13.6361 23.0193L12.9386 22.8993C13.0086 22.4093 13.1436 21.9768 13.3436 21.6018C13.5436 21.2218 13.7961 20.9043 14.1011 20.6493C14.4111 20.3943 14.7636 20.2018 15.1586 20.0718C15.5586 19.9368 15.9886 19.8693 16.4486 19.8693ZM22.6523 29.7168H24.9623V22.3893C24.9623 22.1693 24.9698 21.9468 24.9848 21.7218L23.0648 23.3643C23.0148 23.4043 22.9648 23.4343 22.9148 23.4543C22.8648 23.4693 22.8173 23.4768 22.7723 23.4768C22.6973 23.4768 22.6298 23.4618 22.5698 23.4318C22.5098 23.3968 22.4648 23.3568 22.4348 23.3118L22.0148 22.7343L25.2098 19.9668H26.2973V29.7168H28.4123V30.7368H22.6523V29.7168Z" fill="#0D0C0C"/>
</svg>
