<svg width="47" height="40" viewBox="0 0 47 40" fill="none" xmlns="http://www.w3.org/2000/svg">
<path d="M4.5 20C4.5 9.23045 13.2304 0.5 24 0.5C34.7696 0.5 43.5 9.23045 43.5 20C43.5 30.7696 34.7696 39.5 24 39.5C13.2304 39.5 4.5 30.7696 4.5 20Z" fill="white" stroke="black"/>
<path d="M24.4291 18.778V25H22.5691V18.778H24.4291ZM24.6451 17.074C24.6451 17.222 24.6151 17.362 24.5551 17.494C24.4951 17.622 24.4131 17.736 24.3091 17.836C24.2051 17.932 24.0831 18.01 23.9431 18.07C23.8071 18.126 23.6611 18.154 23.5051 18.154C23.3531 18.154 23.2111 18.126 23.0791 18.07C22.9471 18.01 22.8291 17.932 22.7251 17.836C22.6251 17.736 22.5451 17.622 22.4851 17.494C22.4291 17.362 22.4011 17.222 22.4011 17.074C22.4011 16.922 22.4291 16.78 22.4851 16.648C22.5451 16.516 22.6251 16.4 22.7251 16.3C22.8291 16.2 22.9471 16.122 23.0791 16.066C23.2111 16.01 23.3531 15.982 23.5051 15.982C23.6611 15.982 23.8071 16.01 23.9431 16.066C24.0831 16.122 24.2051 16.2 24.3091 16.3C24.4131 16.4 24.4951 16.516 24.5551 16.648C24.6151 16.78 24.6451 16.922 24.6451 17.074Z" fill="black"/>
</svg>
