<svg width="47" height="40" viewBox="0 0 47 40" fill="none" xmlns="http://www.w3.org/2000/svg">
<rect x="4.5" y="0.5" width="39" height="39" rx="19.5" fill="white" stroke="black"/>
<path d="M24.0017 25.096C23.7057 25.096 23.4437 25.054 23.2157 24.97C22.9917 24.882 22.8017 24.76 22.6457 24.604C22.4937 24.444 22.3777 24.252 22.2977 24.028C22.2177 23.804 22.1777 23.554 22.1777 23.278V20.062H21.6497C21.5537 20.062 21.4717 20.032 21.4037 19.972C21.3357 19.908 21.3017 19.816 21.3017 19.696V18.97L22.2917 18.778L22.6577 17.26C22.7057 17.068 22.8417 16.972 23.0657 16.972H24.0377V18.79H25.5497V20.062H24.0377V23.152C24.0377 23.296 24.0717 23.416 24.1397 23.512C24.2117 23.604 24.3137 23.65 24.4457 23.65C24.5137 23.65 24.5697 23.644 24.6137 23.632C24.6617 23.616 24.7017 23.6 24.7337 23.584C24.7697 23.564 24.8017 23.548 24.8297 23.536C24.8617 23.52 24.8977 23.512 24.9377 23.512C24.9937 23.512 25.0377 23.526 25.0697 23.554C25.1057 23.578 25.1417 23.618 25.1777 23.674L25.7417 24.556C25.5017 24.736 25.2317 24.872 24.9317 24.964C24.6317 25.052 24.3217 25.096 24.0017 25.096Z" fill="black"/>
</svg>
