<svg width="47" height="40" viewBox="0 0 47 40" fill="none" xmlns="http://www.w3.org/2000/svg">
<rect x="3.5" y="0.5" width="41" height="39" rx="19.5" fill="white" stroke="black"/>
<path d="M18.6191 18.778H20.1071C20.2391 18.778 20.3531 18.808 20.4491 18.868C20.5451 18.928 20.6031 19.006 20.6231 19.102L21.2471 21.892C21.2951 22.104 21.3391 22.31 21.3791 22.51C21.4191 22.71 21.4551 22.908 21.4871 23.104C21.5431 22.908 21.6011 22.712 21.6611 22.516C21.7251 22.316 21.7871 22.108 21.8471 21.892L22.6271 19.096C22.6511 19.004 22.7091 18.928 22.8011 18.868C22.8931 18.804 22.9991 18.772 23.1191 18.772H23.9471C24.0791 18.772 24.1911 18.804 24.2831 18.868C24.3791 18.928 24.4391 19.004 24.4631 19.096L25.2071 21.892C25.2631 22.104 25.3191 22.31 25.3751 22.51C25.4351 22.71 25.4911 22.912 25.5431 23.116C25.5751 22.916 25.6131 22.718 25.6571 22.522C25.7051 22.322 25.7551 22.112 25.8071 21.892L26.4671 19.102C26.4871 19.006 26.5431 18.928 26.6351 18.868C26.7311 18.808 26.8391 18.778 26.9591 18.778H28.3751L26.4431 25H24.9311C24.8511 25 24.7831 24.976 24.7271 24.928C24.6711 24.88 24.6271 24.8 24.5951 24.688L23.7071 21.586C23.6671 21.446 23.6291 21.308 23.5931 21.172C23.5571 21.036 23.5251 20.9 23.4971 20.764C23.4691 20.904 23.4371 21.044 23.4011 21.184C23.3691 21.32 23.3311 21.458 23.2871 21.598L22.3871 24.688C22.3271 24.896 22.1951 25 21.9911 25H20.5511L18.6191 18.778Z" fill="black"/>
</svg>
