<?xml version="1.0" encoding="UTF-8"?>
<svg id="Capa_2" data-name="Capa 2" xmlns="http://www.w3.org/2000/svg" viewBox="0 0 475 242">
  <defs>
    <style>
      .cls-1 {
        fill: none;
      }

      .cls-2 {
        fill: #fff;
      }

      .cls-3 {
        fill: #ff7bac;
      }
    </style>
  </defs>
  <g id="Capa_1-2" data-name="Capa 1">
    <g>
      <rect class="cls-1" width="475" height="242"/>
      <path class="cls-2" d="m70,53.37c14.89,0,27,12.11,27,27s-12.11,27-27,27-27-12.11-27-27,12.11-27,27-27m0-13c-22.09,0-40,17.91-40,40s17.91,40,40,40,40-17.91,40-40-17.91-40-40-40h0Z"/>
      <polygon class="cls-3" points="125.5 115.54 70 145.29 70.14 80.31 98.31 97.41 125.5 115.54"/>
      <g>
        <path class="cls-2" d="m161.21,107.93c2.94,0,5.57-.47,7.9-1.4,2.32-.94,4.28-2.25,5.89-3.94,1.6-1.69,2.83-3.74,3.68-6.16.85-2.41,1.27-5.11,1.27-8.1v-46.76h15.22v46.76c0,4.64-.78,8.94-2.35,12.88-1.57,3.94-3.82,7.34-6.76,10.21-2.94,2.86-6.51,5.09-10.7,6.7-4.19,1.6-8.9,2.4-14.15,2.4s-9.96-.8-14.15-2.4c-4.19-1.6-7.74-3.83-10.67-6.7-2.92-2.86-5.17-6.26-6.73-10.21-1.57-3.94-2.35-8.23-2.35-12.88v-46.76h15.22v46.71c0,2.99.42,5.69,1.27,8.1.85,2.41,2.07,4.47,3.65,6.18,1.58,1.71,3.54,3.03,5.86,3.97,2.32.94,4.95,1.4,7.9,1.4Z"/>
        <path class="cls-2" d="m266.25,41.57v11.56h-36.28v21.65h28.58v11.18h-28.58v22.09h36.28v11.61h-51.62V41.57h51.62Z"/>
        <path class="cls-2" d="m335.01,41.57v11.56h-36.28v21.65h28.58v11.18h-28.58v22.09h36.28v11.61h-51.62V41.57h51.62Z"/>
        <path class="cls-2" d="m367.9,89.14v30.51h-15.22V41.57h24.96c5.58,0,10.37.55,14.35,1.65,3.98,1.1,7.24,2.64,9.79,4.62,2.55,1.98,4.41,4.35,5.6,7.1,1.19,2.75,1.78,5.79,1.78,9.1,0,2.63-.41,5.11-1.22,7.45-.81,2.34-1.98,4.46-3.51,6.37s-3.42,3.58-5.66,5.02c-2.25,1.44-4.8,2.59-7.67,3.46,1.92,1.04,3.58,2.54,4.98,4.48l20.49,28.84h-13.7c-1.32,0-2.44-.25-3.37-.76-.92-.5-1.71-1.22-2.35-2.16l-17.21-25c-.64-.94-1.35-1.6-2.12-2-.77-.4-1.92-.59-3.42-.59h-6.51Zm0-10.42h9.51c2.87,0,5.37-.34,7.5-1.03s3.89-1.63,5.26-2.83c1.38-1.21,2.41-2.64,3.08-4.29.68-1.66,1.02-3.47,1.02-5.45,0-3.96-1.37-7-4.1-9.13-2.74-2.12-6.91-3.19-12.54-3.19h-9.73v25.92Z"/>
      </g>
      <g>
        <path class="cls-2" d="m70.45,201.29h-4.38c-.92,0-1.65-.14-2.17-.41-.53-.28-.92-.84-1.19-1.68l-.87-2.88c-1.03.92-2.03,1.73-3.02,2.43-.99.7-2.01,1.28-3.06,1.76s-2.17.83-3.36,1.07c-1.19.24-2.5.36-3.95.36-1.71,0-3.29-.23-4.74-.69-1.45-.46-2.69-1.16-3.73-2.08-1.04-.92-1.85-2.07-2.43-3.45-.58-1.37-.87-2.97-.87-4.8,0-1.53.4-3.05,1.2-4.54.8-1.49,2.14-2.84,4.01-4.04,1.87-1.2,4.36-2.2,7.47-2.99,3.11-.79,6.96-1.19,11.57-1.19v-2.39c0-2.73-.57-4.76-1.72-6.07s-2.81-1.97-5-1.97c-1.58,0-2.9.18-3.95.55-1.05.37-1.97.78-2.75,1.24-.78.46-1.5.88-2.15,1.24-.66.37-1.38.55-2.17.55-.66,0-1.22-.17-1.7-.51-.47-.34-.86-.76-1.15-1.26l-1.78-3.12c4.66-4.27,10.28-6.4,16.87-6.4,2.37,0,4.48.39,6.34,1.17,1.86.78,3.43,1.86,4.72,3.24,1.29,1.38,2.27,3.04,2.94,4.96.67,1.92,1.01,4.03,1.01,6.32v25.6Zm-18.96-6.08c1,0,1.92-.09,2.76-.27.84-.18,1.64-.45,2.39-.82.75-.36,1.47-.81,2.17-1.34.7-.53,1.4-1.16,2.11-1.89v-6.78c-2.84,0-5.22.18-7.13.54-1.91.36-3.44.82-4.6,1.37-1.16.56-1.98,1.21-2.47,1.95-.49.74-.73,1.55-.73,2.43,0,1.72.51,2.96,1.52,3.7,1.01.74,2.34,1.11,3.97,1.11Z"/>
        <path class="cls-2" d="m104.1,168.66c-.26.42-.54.72-.83.89-.29.17-.66.26-1.11.26-.47,0-.98-.13-1.52-.4-.54-.26-1.17-.56-1.88-.89-.71-.33-1.52-.63-2.43-.89-.91-.26-1.98-.4-3.22-.4-1.92,0-3.44.41-4.54,1.22-1.11.82-1.66,1.88-1.66,3.2,0,.87.28,1.6.85,2.19.57.59,1.32,1.11,2.25,1.56.93.45,1.99.85,3.18,1.2,1.19.36,2.4.74,3.63,1.17,1.24.42,2.45.9,3.63,1.44,1.18.54,2.24,1.22,3.18,2.05.93.83,1.68,1.82,2.25,2.98.57,1.16.85,2.55.85,4.19,0,1.95-.36,3.75-1.07,5.39-.71,1.65-1.75,3.07-3.12,4.27-1.37,1.2-3.06,2.13-5.08,2.8-2.01.67-4.33,1.01-6.93,1.01-1.4,0-2.76-.12-4.09-.38-1.33-.25-2.61-.6-3.83-1.05-1.22-.45-2.36-.97-3.4-1.58-1.04-.61-1.96-1.26-2.75-1.98l2.25-3.71c.29-.45.63-.79,1.03-1.03s.9-.36,1.5-.36,1.18.17,1.72.51c.54.34,1.17.71,1.88,1.11.71.4,1.55.76,2.51,1.11s2.18.51,3.65.51c1.16,0,2.15-.14,2.98-.41s1.51-.64,2.05-1.09c.54-.45.93-.97,1.18-1.56.25-.59.38-1.2.38-1.84,0-.95-.28-1.72-.85-2.33-.57-.61-1.32-1.13-2.25-1.58-.94-.45-2-.85-3.2-1.21-1.2-.36-2.42-.74-3.67-1.17-1.25-.42-2.48-.91-3.67-1.48-1.2-.57-2.26-1.28-3.2-2.15-.94-.87-1.69-1.94-2.25-3.2-.57-1.26-.85-2.79-.85-4.58,0-1.66.33-3.24.99-4.74.66-1.5,1.63-2.81,2.9-3.93,1.28-1.12,2.87-2.01,4.78-2.69,1.91-.67,4.11-1.01,6.62-1.01,2.79,0,5.33.46,7.62,1.38,2.29.92,4.2,2.13,5.73,3.63l-2.21,3.52Z"/>
      </g>
      <rect class="cls-2" x="127" y="134" width="290" height="85"/>
      <g>
        <path d="m159.76,201.02v-52.06h18.93c3.59,0,6.66.32,9.2.97,2.54.65,4.63,1.57,6.26,2.77,1.63,1.2,2.83,2.65,3.58,4.36.76,1.7,1.14,3.62,1.14,5.76,0,1.22-.19,2.39-.57,3.51-.38,1.12-.97,2.16-1.76,3.13-.8.97-1.81,1.85-3.04,2.65-1.23.79-2.69,1.46-4.38,2.02,7.54,1.61,11.31,5.47,11.31,11.59,0,2.21-.44,4.25-1.33,6.12-.89,1.87-2.18,3.49-3.87,4.84-1.69,1.36-3.78,2.42-6.26,3.19-2.48.77-5.31,1.15-8.5,1.15h-20.71Zm10.21-29.52h8.16c3.46,0,6.1-.6,7.89-1.8,1.8-1.2,2.69-3.11,2.69-5.72s-.81-4.64-2.43-5.8c-1.62-1.15-4.15-1.73-7.59-1.73h-8.73v15.05Zm0,6.7v15.26h10.36c1.9,0,3.48-.22,4.76-.65,1.28-.43,2.3-1.01,3.07-1.73.77-.72,1.33-1.56,1.67-2.52.34-.96.51-1.98.51-3.06s-.19-2.14-.57-3.04-.97-1.67-1.78-2.3c-.81-.64-1.85-1.12-3.11-1.46-1.27-.34-2.8-.5-4.59-.5h-10.32Z"/>
        <path d="m264.77,174.99c0,3.82-.67,7.35-2.01,10.6-1.34,3.25-3.22,6.07-5.65,8.44-2.43,2.38-5.35,4.23-8.76,5.56s-7.2,2-11.34,2-7.94-.67-11.36-2-6.36-3.19-8.8-5.56-4.33-5.19-5.67-8.44c-1.34-3.25-2.01-6.79-2.01-10.6s.67-7.35,2.01-10.6c1.34-3.25,3.23-6.07,5.67-8.44,2.44-2.38,5.37-4.23,8.8-5.56s7.21-2,11.36-2,7.93.67,11.34,2.02c3.41,1.34,6.34,3.2,8.76,5.56,2.43,2.36,4.31,5.17,5.65,8.42,1.34,3.25,2.01,6.79,2.01,10.6Zm-10.47,0c0-2.86-.4-5.42-1.2-7.69-.8-2.27-1.94-4.19-3.43-5.78-1.49-1.58-3.31-2.8-5.44-3.64-2.14-.84-4.55-1.26-7.23-1.26s-5.1.42-7.25,1.26c-2.15.84-3.98,2.05-5.48,3.64-1.5,1.58-2.66,3.51-3.47,5.78-.81,2.27-1.21,4.83-1.21,7.69s.4,5.42,1.21,7.69c.81,2.27,1.97,4.19,3.47,5.76,1.5,1.57,3.33,2.78,5.48,3.62,2.15.84,4.57,1.26,7.25,1.26s5.09-.42,7.23-1.26c2.14-.84,3.95-2.05,5.44-3.62,1.49-1.57,2.64-3.49,3.43-5.76.8-2.27,1.2-4.83,1.2-7.69Z"/>
        <path d="m328.39,174.99c0,3.82-.67,7.35-2.01,10.6-1.34,3.25-3.22,6.07-5.65,8.44-2.43,2.38-5.35,4.23-8.76,5.56-3.41,1.33-7.2,2-11.34,2s-7.94-.67-11.36-2c-3.43-1.33-6.36-3.19-8.8-5.56-2.44-2.38-4.33-5.19-5.67-8.44-1.34-3.25-2.01-6.79-2.01-10.6s.67-7.35,2.01-10.6c1.34-3.25,3.23-6.07,5.67-8.44,2.44-2.38,5.38-4.23,8.8-5.56,3.43-1.33,7.21-2,11.36-2s7.93.67,11.34,2.02c3.42,1.34,6.34,3.2,8.76,5.56,2.43,2.36,4.31,5.17,5.65,8.42,1.34,3.25,2.01,6.79,2.01,10.6Zm-10.47,0c0-2.86-.4-5.42-1.2-7.69s-1.94-4.19-3.43-5.78-3.31-2.8-5.44-3.64c-2.14-.84-4.55-1.26-7.23-1.26s-5.1.42-7.25,1.26c-2.15.84-3.98,2.05-5.48,3.64-1.5,1.58-2.66,3.51-3.47,5.78s-1.21,4.83-1.21,7.69.4,5.42,1.21,7.69c.81,2.27,1.97,4.19,3.47,5.76,1.5,1.57,3.33,2.78,5.48,3.62,2.15.84,4.57,1.26,7.25,1.26s5.09-.42,7.23-1.26c2.14-.84,3.95-2.05,5.44-3.62,1.49-1.57,2.64-3.49,3.43-5.76.8-2.27,1.2-4.83,1.2-7.69Z"/>
        <path d="m349.94,170.78h2.39c.96,0,1.76-.13,2.39-.38.63-.25,1.18-.65,1.63-1.21l15.14-18.18c.63-.77,1.3-1.3,1.99-1.6.7-.3,1.57-.45,2.64-.45h8.8l-18.48,21.64c-.58.67-1.14,1.24-1.67,1.69-.53.46-1.1.83-1.71,1.12.83.29,1.59.7,2.26,1.22.67.53,1.32,1.2,1.95,2.02l19.04,24.37h-9.03c-1.21,0-2.12-.16-2.71-.49-.59-.32-1.09-.8-1.5-1.42l-15.52-19.22c-.51-.62-1.08-1.07-1.71-1.35-.63-.28-1.53-.41-2.69-.41h-3.22v22.9h-10.21v-52.09h10.21v21.85Z"/>
      </g>
    </g>
  </g>
</svg>