<?xml version="1.0" encoding="UTF-8"?>
<svg id="Capa_2" data-name="Capa 2" xmlns="http://www.w3.org/2000/svg" viewBox="0 0 395.53 212.62">
  <defs>
    <style>
      .cls-1 {
        font-size: 108px;
        letter-spacing: .03em;
      }

      .cls-1, .cls-2, .cls-3 {
        font-family: Lato-Bold, Lato;
        font-weight: 700;
      }

      .cls-4, .cls-3 {
        fill: #fff;
      }

      .cls-2 {
        font-size: 79px;
      }

      .cls-3 {
        font-size: 72px;
        letter-spacing: .04em;
      }
    </style>
  </defs>
  <g id="Capa_1-2" data-name="Capa 1">
    <g>
      <g>
        <circle class="cls-4" cx="43.53" cy="53.76" r="33.5"/>
        <path d="m43.53,26.76c14.89,0,27,12.11,27,27s-12.11,27-27,27-27-12.11-27-27,12.11-27,27-27m0-13C21.44,13.76,3.53,31.67,3.53,53.76s17.91,40,40,40,40-17.91,40-40S65.62,13.76,43.53,13.76h0Z"/>
      </g>
      <polygon points="99.03 88.93 43.53 118.68 43.67 53.7 71.84 70.8 99.03 88.93"/>
      <text class="cls-1" transform="translate(93.53 93.04) scale(1.05 1)"><tspan x="0" y="0">UEER</tspan></text>
      <text class="cls-2" transform="translate(0 177.68)"><tspan x="0" y="0">as</tspan></text>
      <rect x="102.61" y="107.65" width="287" height="85"/>
      <text class="cls-3" transform="translate(128.33 174.21) scale(1.05 1)"><tspan x="0" y="0">BOOK</tspan></text>
    </g>
  </g>
</svg>